HIERARCHY
ROOT Pelvis
{
	OFFSET 0.000000 0.000000 0.000000
	CHANNELS 6 Xposition Yposition Zposition Xrotation Yrotation Zrotation
	JOINT LeftUpLeg_virtual
	{
		OFFSET 0.000000 0.000000 0.000000
		CHANNELS 3 Xrotation Yrotation Zrotation
		JOINT LeftUpLeg
		{
			OFFSET 18.735201 -5.666702 -4.541200
			CHANNELS 3 Xrotation Yrotation Zrotation
			JOINT LeftLeg
			{
				OFFSET -0.021200 -31.938179 0.493100
				CHANNELS 3 Xrotation Yrotation Zrotation
				JOINT LeftFoot
				{
					OFFSET 0.021200 -31.938179 -4.336299
					CHANNELS 3 Xrotation Yrotation Zrotation
					JOINT LeftToeBase
					{
						OFFSET 0.943001 -26.722000 15.023500
						CHANNELS 3 Xrotation Yrotation Zrotation
						End Site
						{
							OFFSET 0 0 0
						}
					}
				}
			}
		}
	}
	JOINT RightUpLeg_virtual
	{
		OFFSET 0.000000 0.000000 0.000000
		CHANNELS 3 Xrotation Yrotation Zrotation
		JOINT RightUpLeg
		{
			OFFSET -18.735201 -5.666702 -4.541200
			CHANNELS 3 Xrotation Yrotation Zrotation
			JOINT RightLeg
			{
				OFFSET 0.018946 -31.938133 0.493100
				CHANNELS 3 Xrotation Yrotation Zrotation
				JOINT RightFoot
				{
					OFFSET -0.018946 -31.938126 -4.336299
					CHANNELS 3 Xrotation Yrotation Zrotation
					JOINT RightToeBase
					{
						OFFSET -0.943001 -26.722004 15.023500
						CHANNELS 3 Xrotation Yrotation Zrotation
						End Site
						{
							OFFSET 0 0 0
						}
					}
				}
			}
		}
	}
	JOINT Hips_virtual
	{
		OFFSET 0.000000 0.000000 0.000000
		CHANNELS 3 Xrotation Yrotation Zrotation
		JOINT Hips
		{
			OFFSET -0.000000 -0.000000 -0.000000
			CHANNELS 3 Xrotation Yrotation Zrotation
			JOINT Spine
			{
				OFFSET 0.000000 10.199997 -0.299500
				CHANNELS 3 Xrotation Yrotation Zrotation
				JOINT Spine1
				{
					OFFSET 0.000000 11.900002 -1.516600
					CHANNELS 3 Xrotation Yrotation Zrotation
					JOINT Spine2
					{
						OFFSET 0.000000 13.600006 -2.842500
						CHANNELS 3 Xrotation Yrotation Zrotation
						JOINT Neck_virtual
						{
							OFFSET 0.000000 0.000000 0.000000
							CHANNELS 3 Xrotation Yrotation Zrotation
							JOINT Neck
							{
								OFFSET 0.000000 9.624100 -2.890100
								CHANNELS 3 Xrotation Yrotation Zrotation
								JOINT Head
								{
									OFFSET 0.000000 14.068802 -1.351900
									CHANNELS 3 Xrotation Yrotation Zrotation
									End Site
									{
										OFFSET 0 0 0
									}
								}
							}
						}
						JOINT LeftShoulder_virtual
						{
							OFFSET 0.000000 0.000000 0.000000
							CHANNELS 3 Xrotation Yrotation Zrotation
							JOINT LeftShoulder
							{
								OFFSET 15.263000 10.923401 -0.547700
								CHANNELS 3 Xrotation Yrotation Zrotation
								JOINT LeftArm
								{
									OFFSET 25.438599 -2.830597 -13.032500
									CHANNELS 3 Xrotation Yrotation Zrotation
									JOINT LeftForeArm
									{
										OFFSET 29.960503 0.000000 0.000000
										CHANNELS 3 Xrotation Yrotation Zrotation
										JOINT LeftHand
										{
											OFFSET 27.849251 0.000000 0.000000
											CHANNELS 3 Xrotation Yrotation Zrotation
											End Site
											{
												OFFSET 0 0 0
											}
										}
									}
								}
							}
						}
						JOINT RightShoulder_virtual
						{
							OFFSET 0.000000 0.000000 0.000000
							CHANNELS 3 Xrotation Yrotation Zrotation
							JOINT RightShoulder
							{
								OFFSET -15.263000 10.923401 -0.547700
								CHANNELS 3 Xrotation Yrotation Zrotation
								JOINT RightArm
								{
									OFFSET -25.438599 -2.830597 -13.032500
									CHANNELS 3 Xrotation Yrotation Zrotation
									JOINT RightForeArm
									{
										OFFSET -29.960503 0.000000 0.000000
										CHANNELS 3 Xrotation Yrotation Zrotation
										JOINT RightHand
										{
											OFFSET -27.849251 0.000000 0.000000
											CHANNELS 3 Xrotation Yrotation Zrotation
											End Site
											{
												OFFSET 0 0 0
											}
										}
									}
								}
							}
						}
					}
				}
			}
		}
	}
}
MOTION
Frames: 13
Frame Time: 0.03333333
-8.573128 91.250229 19.518549 0.000000 0.000000 0.000000 176.963918 -63.557738 177.950730 -0.774804 22.433357 14.187897 17.954523 -2.748879 15.224691 -10.766414 4.130241 -35.070938 0.000000 0.000000 0.000000 177.952369 -64.250907 179.143035 -28.904483 -14.384658 -16.593750 22.953059 -2.607141 -2.258562 18.499115 3.846153 -8.126618 0.000000 0.000000 0.000000 176.073124 -64.981914 177.317790 -0.767540 0.183321 0.000725 12.699705 2.640305 1.577453 -3.367316 -2.465924 5.044961 0.000000 0.000000 0.000000 -5.464702 0.375249 2.561761 1.151798 2.289045 -0.575761 0.000000 0.000000 0.000000 -5.244355 0.095722 3.516207 -2.291149 -1.073766 -8.238532 11.997156 -18.191516 -61.075907 -11.551072 -20.054161 -18.301181 0.000000 0.000000 0.000000 -5.416594 0.818332 2.878884 5.809353 0.298892 12.311240 31.732786 22.779154 38.505888 5.395425 34.895382 7.480883 0.000000 0.000000 0.000000 
-8.391989 90.558907 18.166142 0.000000 0.000000 0.000000 177.820300 -59.468148 179.098762 2.544938 23.347241 12.997738 17.011686 -2.063770 16.208128 -7.310026 5.077521 -34.862208 0.000000 0.000000 0.000000 178.696928 -60.261748 -179.820876 -31.832821 -14.948812 -16.957302 25.671257 -0.787540 -0.916436 21.720461 5.109028 -8.681234 0.000000 0.000000 0.000000 176.854088 -61.161578 178.484263 -0.816024 0.178767 -0.011172 12.531549 2.155580 2.742492 -2.676416 -3.014886 4.773844 0.000000 0.000000 0.000000 -4.895333 -0.127710 2.577619 0.857318 1.655957 -0.449161 0.000000 0.000000 0.000000 -5.009606 -0.455685 3.337798 -2.158660 -0.923932 -8.630988 11.699248 -17.319500 -62.177275 -10.705459 -19.796685 -17.649914 0.000000 0.000000 0.000000 -5.085878 0.281063 2.627994 5.473682 1.026326 12.564562 31.819799 23.223545 38.479626 7.025619 35.387138 5.628456 0.000000 0.000000 0.000000 
-8.329685 89.858437 16.574768 0.000000 0.000000 0.000000 178.507923 -55.467225 -179.934927 5.131440 23.646911 12.272675 17.567361 -1.823848 17.283322 -4.389366 5.419549 -34.684807 0.000000 0.000000 0.000000 179.266388 -56.207116 -179.000434 -33.796391 -15.072127 -16.617562 28.038461 0.884336 0.173495 22.214591 6.384371 -9.118779 0.000000 0.000000 0.000000 177.524485 -57.335401 179.479312 -0.842475 0.174018 -0.022749 12.546977 1.537559 3.913726 -2.051504 -3.593614 4.436446 0.000000 0.000000 0.000000 -4.323464 -0.663812 2.573255 0.558573 0.964485 -0.285214 0.000000 0.000000 0.000000 -4.717208 -1.046337 3.116677 -2.009064 -0.866148 -9.095911 11.986685 -16.382791 -62.948219 -9.714722 -20.130239 -17.210562 0.000000 0.000000 0.000000 -4.845436 -0.293483 2.373067 5.164219 1.833085 12.819352 31.383442 24.217942 38.745344 8.628594 35.383477 3.653008 0.000000 0.000000 0.000000 
-8.536816 89.363892 14.533836 0.000000 0.000000 0.000000 179.036006 -51.634902 -179.102423 7.000516 23.582154 11.992321 19.136320 -2.085218 18.355216 -2.538620 5.200400 -34.094105 0.000000 0.000000 0.000000 179.717194 -52.300623 -178.300285 -34.506693 -15.136340 -15.894053 30.041668 2.219164 1.062765 19.912052 7.503105 -9.254518 0.000000 0.000000 0.000000 178.120105 -53.525959 -179.621981 -0.841098 0.153807 -0.034330 12.841193 0.929242 4.952930 -1.536405 -4.125340 3.959472 0.000000 0.000000 0.000000 -3.814935 -1.143883 2.454977 0.240764 0.233268 -0.074611 0.000000 0.000000 0.000000 -4.386870 -1.587827 2.790487 -1.874865 -0.872520 -9.465112 12.778075 -15.247653 -63.380986 -8.653389 -21.153369 -17.015833 0.000000 0.000000 0.000000 -4.730440 -0.822014 2.022539 4.891530 2.589878 13.215312 30.546860 25.418793 39.269377 10.056902 35.252976 1.738753 0.000000 0.000000 0.000000 
-8.956932 89.257751 12.059549 0.000000 0.000000 0.000000 179.465310 -48.005117 -178.401249 8.111101 23.448268 11.945039 21.284446 -2.237683 19.373104 -1.618756 4.998538 -31.911767 0.000000 0.000000 0.000000 -179.904628 -48.550829 -177.728325 -34.173441 -14.907832 -14.686754 31.518147 3.515992 1.770923 16.851776 8.728264 -8.652711 0.000000 0.000000 0.000000 178.651152 -49.761176 -178.811853 -0.824776 0.120657 -0.030081 13.405579 0.490642 5.783433 -1.167369 -4.524660 3.329418 0.000000 0.000000 0.000000 -3.429467 -1.483126 2.179451 -0.080534 -0.505919 0.178745 0.000000 0.000000 0.000000 -4.045383 -1.979646 2.352803 -1.757612 -0.860584 -9.665701 13.802941 -13.689002 -63.702019 -7.482918 -22.419713 -16.952536 0.000000 0.000000 0.000000 -4.771004 -1.214651 1.543825 4.665174 3.229717 13.881127 29.557777 26.492938 39.819129 11.209495 35.286543 0.087517 0.000000 0.000000 0.000000 
-9.526936 89.669029 9.059090 0.000000 0.000000 0.000000 179.809006 -44.544277 -177.784961 8.291520 23.187886 11.798080 23.985649 -1.993663 20.194846 -0.793251 4.904401 -27.729439 0.000000 0.000000 0.000000 -179.605780 -44.949649 -177.274582 -33.010721 -14.012539 -12.780729 32.213737 5.025112 2.169486 14.797934 10.244128 -7.090883 0.000000 0.000000 0.000000 179.081631 -46.020893 -178.111212 -0.794990 0.077273 -0.022877 14.166791 0.316327 6.427821 -0.974923 -4.730318 2.580220 0.000000 0.000000 0.000000 -3.144019 -1.624990 1.746946 -0.385968 -1.224318 0.452851 0.000000 0.000000 0.000000 -3.678533 -2.156805 1.820182 -1.691762 -0.707780 -9.664097 14.838369 -11.670019 -64.124609 -6.190830 -23.371692 -16.926052 0.000000 0.000000 0.000000 -4.970714 -1.405334 0.965067 4.503484 3.720624 14.772116 28.788943 27.260907 39.976985 12.044165 35.697075 -1.154643 0.000000 0.000000 0.000000 
-10.174084 90.479340 5.749132 0.000000 0.000000 0.000000 -179.955254 -41.135986 -177.254529 6.821527 22.657370 11.438557 27.860352 -1.250907 20.514589 1.567703 4.757992 -21.972742 0.000000 0.000000 0.000000 -179.471622 -41.494478 -176.962934 -31.175459 -12.297464 -10.216293 31.853035 6.569759 2.136990 14.069472 11.671249 -5.042280 0.000000 0.000000 0.000000 179.430791 -42.325118 -177.527572 -0.780282 0.047570 -0.005539 15.003404 0.397085 6.908365 -0.953047 -4.713689 1.799009 0.000000 0.000000 0.000000 -2.900524 -1.551257 1.199514 -0.654284 -1.884599 0.723159 0.000000 0.000000 0.000000 -3.314272 -2.098224 1.252697 -1.685594 -0.370100 -9.537044 15.787262 -9.356430 -64.781578 -4.773218 -23.651162 -16.868848 0.000000 0.000000 0.000000 -5.301671 -1.366293 0.351968 4.393692 4.107385 15.823409 28.404619 27.681257 39.586120 12.546601 36.357862 -1.840784 0.000000 0.000000 0.000000 
-10.759470 91.472733 2.185841 0.000000 0.000000 0.000000 -179.842296 -37.673787 -176.868117 3.280487 21.922278 10.863164 33.429152 -0.168556 20.056014 5.021950 4.462924 -15.947028 0.000000 0.000000 0.000000 -179.490418 -38.037190 -176.825634 -28.976067 -10.044988 -7.044107 30.338474 7.804123 1.797248 13.690185 12.428811 -3.301620 0.000000 0.000000 0.000000 179.625205 -38.656354 -177.152909 -0.778008 0.039314 0.009679 15.777561 0.657268 7.204153 -1.082935 -4.491201 1.078599 0.000000 0.000000 0.000000 -2.646687 -1.294971 0.604761 -0.854920 -2.453099 0.954469 0.000000 0.000000 0.000000 -2.939006 -1.828717 0.715326 -1.747700 0.123171 -9.423277 16.754760 -7.040588 -65.645556 -3.324210 -23.546763 -16.859168 0.000000 0.000000 0.000000 -5.694010 -1.113388 -0.201729 4.329020 4.431450 16.913003 28.445704 27.775251 38.695894 12.687274 37.022603 -1.915851 0.000000 0.000000 0.000000 
-11.274605 92.482292 -1.584322 0.000000 0.000000 0.000000 -179.950445 -34.195950 -176.645781 -2.193883 21.099689 10.203885 40.224784 0.330520 18.729427 8.035878 3.406284 -11.396312 0.000000 0.000000 0.000000 -179.612378 -34.541131 -176.705627 -26.578628 -7.831672 -3.753288 28.202934 8.378379 1.414702 12.661126 11.963409 -2.641264 0.000000 0.000000 0.000000 179.641256 -35.034837 -176.992932 -0.768647 0.039942 0.018552 16.374185 0.939023 7.271467 -1.320823 -4.111829 0.492362 0.000000 0.000000 0.000000 -2.333313 -0.913964 0.047879 -0.974935 -2.902937 1.117173 0.000000 0.000000 0.000000 -2.538852 -1.428905 0.266062 -1.891901 0.714863 -9.389473 17.943868 -5.058149 -66.488558 -1.982192 -23.714710 -17.007603 0.000000 0.000000 0.000000 -6.036990 -0.706856 -0.625719 4.263458 4.719188 17.872105 28.815520 27.519729 37.492459 12.521449 37.554637 -1.437806 0.000000 0.000000 0.000000 
-11.744001 93.440758 -5.298466 0.000000 0.000000 0.000000 179.686841 -30.631206 -176.595347 -9.000132 20.281608 9.500572 46.869424 -0.129582 16.828490 9.599771 1.514191 -8.939213 0.000000 0.000000 0.000000 -179.878305 -30.985556 -176.653950 -24.219369 -6.020404 -0.783593 25.799404 8.328435 0.990032 11.712994 10.321431 -3.196562 0.000000 0.000000 0.000000 179.396121 -31.414123 -177.070660 -0.757113 0.042021 0.019576 16.712928 1.066929 7.007080 -1.612361 -3.672486 0.119400 0.000000 0.000000 0.000000 -1.985907 -0.479904 -0.363945 -1.014732 -3.217489 1.196444 0.000000 0.000000 0.000000 -2.149784 -0.978152 -0.042748 -2.093954 1.341100 -9.511538 19.383141 -3.554502 -67.120440 -0.811667 -24.574519 -17.305085 0.000000 0.000000 0.000000 -6.256186 -0.229603 -0.872071 4.154752 4.997970 18.722810 29.363789 26.891027 36.314941 12.114889 37.984191 -0.519255 0.000000 0.000000 0.000000 
-12.163366 94.355301 -9.138912 0.000000 0.000000 0.000000 179.152228 -27.017769 -176.704808 -16.013899 19.531423 8.662428 51.452751 -1.248519 14.741625 8.793270 -0.511781 -8.039173 0.000000 0.000000 0.000000 179.707577 -27.307019 -176.692745 -22.010039 -4.293949 1.812455 22.967040 8.427094 0.462888 12.576961 8.367757 -4.308307 0.000000 0.000000 0.000000 178.925753 -27.790233 -177.273694 -0.744202 0.017676 0.025934 16.754558 0.932272 6.360542 -1.888582 -3.253683 -0.018886 0.000000 0.000000 0.000000 -1.653748 -0.058822 -0.560551 -0.993764 -3.393527 1.182213 0.000000 0.000000 0.000000 -1.758120 -0.548568 -0.187796 -2.317175 1.955203 -9.779852 20.928482 -2.559180 -67.356949 0.131725 -26.076778 -17.734709 0.000000 0.000000 0.000000 -6.281338 0.229957 -0.935550 3.998954 5.242647 19.468209 30.023804 25.800003 35.305531 11.602698 38.545268 0.648240 0.000000 0.000000 0.000000 
-12.549942 95.208328 -12.940052 0.000000 0.000000 0.000000 178.515942 -23.409900 -176.916530 -21.988771 18.578437 7.245549 52.168039 -2.609893 12.874691 6.968782 -1.979205 -7.907045 0.000000 0.000000 0.000000 179.189275 -23.607960 -176.810088 -20.137039 -2.182846 3.906781 20.155577 9.215604 -0.125979 15.543199 6.825254 -5.311028 0.000000 0.000000 0.000000 178.339600 -24.207251 -177.494856 -0.748901 -0.024354 0.043077 16.508707 0.523915 5.411435 -2.105951 -2.900439 0.062656 0.000000 0.000000 0.000000 -1.367980 0.321681 -0.518548 -0.939921 -3.438808 1.082905 0.000000 0.000000 0.000000 -1.354081 -0.180929 -0.172581 -2.523351 2.553753 -10.105472 22.300933 -1.866275 -67.226615 0.883769 -27.655226 -18.169504 0.000000 0.000000 0.000000 -6.072001 0.632420 -0.841390 3.811507 5.462901 20.078229 30.723472 24.276786 34.548774 11.090271 39.469088 1.921978 0.000000 0.000000 0.000000 
-12.867682 95.855995 -16.680706 0.000000 0.000000 0.000000 177.943818 -19.756821 -177.135724 -26.342494 17.338162 4.889875 48.721857 -3.644998 11.414454 6.301792 -2.364984 -7.705831 0.000000 0.000000 0.000000 178.628845 -20.013895 -176.932485 -18.650229 -0.041753 5.408428 17.941138 10.567288 -0.612169 19.105738 5.609941 -6.100480 0.000000 0.000000 0.000000 177.749745 -20.746910 -177.644860 -0.777036 -0.063153 0.055319 16.017565 -0.047709 4.282019 -2.218799 -2.622989 0.297822 0.000000 0.000000 0.000000 -1.145634 0.651137 -0.298488 -0.882692 -3.378870 0.914506 0.000000 0.000000 0.000000 -0.905220 0.131662 -0.053549 -2.657339 3.041080 -10.448775 23.158178 -1.277556 -66.853516 1.458638 -28.666803 -18.521692 0.000000 0.000000 0.000000 -5.622992 0.962037 -0.654433 3.661670 5.672533 20.517823 31.378958 22.471474 33.959052 10.634006 40.837534 3.212341 0.000000 0.000000 0.000000 
